<?xml version="1.0" standalone="no"?>
<!DOCTYPE svg PUBLIC "-//W3C//DTD SVG 20010904//EN"
 "http://www.w3.org/TR/2001/REC-SVG-20010904/DTD/svg10.dtd">
<svg version="1.0" xmlns="http://www.w3.org/2000/svg"
 width="728.000000pt" height="292.000000pt" viewBox="0 0 728.000000 292.000000"
 preserveAspectRatio="xMidYMid meet">

<g transform="translate(0.000000,292.000000) scale(0.100000,-0.100000)"
fill="#000000" stroke="none">
<path d="M1170 2782 c0 -10 -13 -31 -30 -45 -16 -15 -30 -31 -30 -37 0 -10 -9
-20 -115 -135 -41 -43 -70 -82 -66 -85 5 -3 3 -20 -5 -39 -8 -19 -17 -31 -21
-28 -12 13 -33 -15 -27 -38 6 -23 -16 -49 -23 -28 -7 20 -43 1 -50 -26 -3 -14
-21 -44 -40 -67 -18 -23 -33 -46 -33 -52 0 -6 -10 -12 -22 -14 -18 -2 -23 -9
-21 -31 2 -23 -3 -30 -28 -39 -20 -7 -36 -24 -52 -57 -12 -27 -28 -46 -35 -43
-8 2 -12 -7 -12 -26 0 -16 -7 -35 -15 -42 -9 -7 -14 -19 -11 -26 3 -7 1 -16
-5 -19 -5 -4 -12 1 -15 10 -5 12 -9 13 -20 4 -16 -13 -18 -45 -4 -54 18 -11
-2 -27 -26 -21 -21 6 -24 3 -24 -19 0 -14 -6 -25 -13 -25 -13 0 -67 -106 -67
-130 0 -30 185 -250 210 -250 15 0 168 112 221 163 11 9 23 17 27 17 5 0 24
15 43 34 43 43 195 146 214 146 12 0 9 -11 -11 -50 -14 -28 -30 -53 -35 -56
-5 -3 -9 -25 -9 -49 0 -39 -2 -43 -22 -37 -20 5 -21 2 -15 -33 8 -48 -7 -78
-34 -70 -23 8 -23 6 -5 -31 18 -38 28 -94 17 -94 -5 0 -23 14 -41 30 -35 33
-48 34 -31 2 15 -28 14 -32 -8 -32 -14 0 -18 -5 -14 -21 3 -11 12 -23 19 -26
8 -3 14 -12 14 -20 0 -9 -6 -13 -15 -9 -9 3 -15 0 -15 -9 0 -8 -4 -15 -10 -15
-5 0 -10 9 -10 20 0 11 -4 20 -10 20 -5 0 -10 -18 -10 -39 0 -25 -5 -41 -15
-45 -11 -4 -15 -21 -15 -66 0 -45 -4 -60 -14 -60 -8 0 -16 6 -19 13 -5 14 -47
-120 -47 -151 0 -11 -4 -24 -10 -27 -5 -3 -10 -17 -10 -29 0 -13 -7 -29 -15
-36 -20 -16 -19 -30 1 -30 11 0 15 -6 11 -20 -3 -11 -1 -23 4 -26 18 -11 8
-26 -13 -21 -23 6 -23 6 -21 -105 3 -115 9 -132 66 -190 8 -7 22 -30 32 -51 9
-20 28 -47 41 -60 13 -12 24 -28 24 -36 0 -20 70 -112 81 -106 11 8 68 -55 69
-76 0 -16 19 -39 32 -39 15 0 8 37 -10 61 -19 24 -35 56 -37 74 -1 6 -8 24
-14 40 -26 61 -41 214 -31 320 18 189 48 346 71 369 5 6 9 17 9 24 0 73 297
675 437 887 22 33 46 71 53 85 7 14 16 27 19 30 18 15 51 72 51 88 0 32 -112
232 -130 232 -5 0 -15 -7 -24 -15 -8 -8 -21 -15 -30 -15 -8 0 -18 -5 -22 -11
-3 -6 -16 -8 -29 -5 -14 4 -28 0 -35 -9 -7 -8 -20 -14 -29 -13 -10 2 -15 -4
-15 -14 1 -10 -2 -18 -6 -18 -5 0 -11 8 -13 18 -4 16 -5 16 -6 0 0 -10 -8 -18
-16 -18 -9 0 -18 -7 -21 -15 -4 -8 -10 -12 -15 -9 -5 3 -9 -2 -9 -10 0 -9 -8
-16 -18 -16 -10 0 -28 -9 -40 -20 -12 -12 -22 -17 -22 -13 0 4 -7 -1 -15 -11
-8 -11 -23 -20 -32 -21 -31 -4 -53 -17 -53 -31 0 -10 -7 -13 -25 -8 -19 5 -25
2 -25 -10 0 -20 -19 -21 -26 -2 -3 8 6 28 20 43 14 15 26 32 26 38 0 6 11 22
25 37 14 15 25 31 25 37 0 5 19 29 43 53 23 24 62 73 87 108 25 35 55 74 67
87 12 12 30 36 39 53 17 28 17 32 1 59 -9 16 -17 36 -17 44 0 9 -6 18 -12 20
-9 4 -9 8 -3 14 14 11 18 105 5 137 -11 30 -40 35 -40 8z"/>
<path d="M4515 1791 c-38 -3 -79 -13 -91 -21 -12 -8 -45 -51 -75 -96 -135
-203 -283 -420 -294 -434 -7 -8 -29 -41 -49 -72 l-37 -58 73 0 73 0 93 140 92
140 61 0 61 0 -6 -47 c-3 -27 -8 -77 -11 -113 -3 -36 -8 -78 -11 -93 l-6 -28
79 3 78 3 7 80 c12 144 37 438 44 523 4 46 3 81 -2 80 -5 -1 -40 -4 -79 -7z
m-81 -280 l-7 -71 -39 0 c-22 0 -38 3 -36 8 14 31 81 142 84 139 3 -2 1 -36
-2 -76z"/>
<path d="M4862 1780 c-7 -19 -113 -267 -190 -441 -73 -169 -78 -186 -56 -210
15 -17 33 -19 165 -19 136 0 149 2 159 19 19 37 12 41 -74 41 -47 0 -88 5 -91
10 -6 10 18 73 118 300 47 107 127 300 127 306 0 1 -34 4 -76 6 -61 2 -78 0
-82 -12z"/>
<path d="M5501 1768 l-10 -27 127 -3 127 -3 -255 -274 c-140 -150 -261 -284
-269 -296 -12 -19 -12 -26 -2 -39 12 -14 45 -16 226 -16 185 0 214 2 219 16
16 42 12 44 -125 44 -108 0 -130 2 -127 14 2 12 242 278 442 490 104 110 99
114 -150 118 l-194 3 -9 -27z"/>
<path d="M6224 1790 c-165 -4 -195 -7 -211 -23 -11 -9 -36 -54 -56 -100 -149
-344 -207 -485 -207 -509 0 -17 7 -31 19 -38 11 -6 91 -10 189 -10 l169 0 11
25 c7 14 12 28 12 30 0 3 -52 5 -115 5 -136 0 -134 -3 -81 112 18 40 39 90 47
111 l13 37 98 0 c86 0 98 2 108 19 5 11 10 22 10 25 0 3 -42 7 -94 8 l-94 3
37 90 c73 178 70 175 217 175 77 0 105 4 114 15 6 8 10 18 8 22 -1 4 -89 6
-194 3z"/>
<path d="M6491 1783 c-5 -10 -71 -162 -146 -338 -75 -176 -139 -323 -142 -327
-2 -5 90 -8 205 -8 201 0 210 1 243 23 30 20 48 56 157 310 132 306 137 328
86 347 -14 6 -108 10 -209 10 -165 0 -185 -2 -194 -17z m263 -58 c7 -19 -4
-49 -118 -310 -53 -121 -104 -226 -113 -232 -18 -14 -133 -18 -133 -5 0 4 43
109 96 232 52 124 105 249 116 278 l21 52 62 0 c46 0 64 -4 69 -15z"/>
<path d="M2056 1765 c-24 -25 -86 -173 -86 -204 0 -10 36 -49 80 -87 93 -81
95 -87 49 -195 -47 -112 -42 -109 -185 -109 l-123 0 -16 -30 -16 -30 198 0
c239 0 231 -4 292 142 57 136 56 151 -21 219 -90 78 -98 87 -98 107 0 28 32
109 54 137 20 25 25 26 145 28 116 2 124 3 139 25 l14 22 -201 0 c-202 0 -202
0 -225 -25z"/>
<path d="M2413 1467 c-78 -177 -145 -330 -149 -339 -5 -16 2 -18 68 -18 l75 0
36 83 c20 45 43 99 51 120 12 30 20 37 43 37 15 0 80 9 143 19 140 24 143 27
218 199 64 149 68 166 48 197 l-16 25 -188 0 -187 -1 -142 -322z m377 254 c0
-31 -100 -257 -123 -279 -13 -12 -43 -23 -74 -28 l-53 -7 29 69 c15 38 37 89
48 114 12 25 31 69 43 98 l22 52 54 0 c46 0 54 -3 54 -19z"/>
<path d="M3075 1768 c-15 -14 -50 -80 -85 -163 -34 -77 -67 -153 -74 -170 -51
-111 -108 -260 -108 -282 0 -14 6 -29 13 -34 8 -5 93 -9 190 -9 l176 0 11 24
c6 13 8 27 5 30 -4 3 -55 6 -115 6 -94 0 -108 2 -108 17 0 9 21 67 48 129 l47
114 97 0 c86 0 99 2 108 19 5 11 10 22 10 25 0 3 -43 7 -95 8 l-95 3 50 114
c27 63 56 121 65 130 12 12 42 17 130 19 101 3 116 6 125 23 10 18 5 19 -179
19 -183 0 -191 -1 -216 -22z"/>
<path d="M3551 1773 c-11 -10 -63 -119 -116 -243 -53 -124 -103 -240 -111
-257 -18 -39 -44 -112 -44 -124 0 -4 7 -15 16 -23 13 -13 45 -16 193 -16 l178
0 11 25 c7 14 12 28 12 30 0 3 -51 5 -114 5 -63 0 -117 4 -120 9 -3 5 12 49
33 97 21 49 73 170 115 269 42 99 81 184 85 188 5 5 63 8 129 8 110 -1 122 0
132 18 5 11 10 22 10 25 0 3 -87 6 -194 6 -170 0 -196 -2 -215 -17z"/>
<path d="M4033 1773 c-3 -10 -40 -94 -81 -188 -63 -145 -183 -422 -199 -462
-4 -10 15 -13 74 -13 l80 0 36 83 c19 45 69 161 110 257 41 96 90 212 110 258
l36 82 -80 0 c-67 0 -81 -3 -86 -17z"/>
<path d="M5230 1668 c-50 -114 -225 -517 -237 -545 -4 -10 15 -13 75 -13 l80
0 22 48 c12 26 37 83 55 127 35 85 82 197 163 388 l50 117 -77 0 -77 0 -54
-122z"/>
</g>
</svg>
